<?xml version="1.0" encoding="UTF-8" standalone="no"?>
<!-- Created with Inkscape (http://www.inkscape.org/) -->

<svg
   version="1.1"
   id="svg1"
   width="324.452"
   height="100.98"
   viewBox="0 0 324.452 100.98"
   xmlns="http://www.w3.org/2000/svg"
   xmlns:svg="http://www.w3.org/2000/svg">
  <defs
     id="defs1" />
  <g
     id="g1">
    <path
       id="path1"
       d="m -108.42633,48.18947 -0.0356,-23.7323 m 0,-12.76039 0.0356,-23.74411"
       style="fill:none;stroke:#000000;stroke-width:0.99628;stroke-linecap:round;stroke-linejoin:round;stroke-miterlimit:10;stroke-dasharray:none;stroke-opacity:1"
       transform="matrix(1.3333333,0,0,-1.3333333,186.40933,84.253333)" />
    <path
       id="path2"
       d="m -108.4263,15.96628 v -4.27332 m 0,8.48287 v 4.27333"
       style="fill:none;stroke:#000000;stroke-width:0.99628;stroke-linecap:round;stroke-linejoin:round;stroke-miterlimit:10;stroke-dasharray:none;stroke-opacity:1"
       transform="matrix(1.3333333,0,0,-1.3333333,186.40933,84.253333)" />
    <path
       id="path3"
       d="m -102.0482,15.96628 h -12.7562 m 19.1343,4.20955 h -25.51238"
       style="fill:none;stroke:#000000;stroke-width:0.99628;stroke-linecap:round;stroke-linejoin:round;stroke-miterlimit:10;stroke-dasharray:none;stroke-opacity:1"
       transform="matrix(1.3333333,0,0,-1.3333333,186.40933,84.253333)" />
    <path
       id="path4"
       d="m -108.42633,48.18947 h 12.04736"
       style="fill:none;stroke:#000000;stroke-width:0.99628;stroke-linecap:round;stroke-linejoin:round;stroke-miterlimit:10;stroke-dasharray:none;stroke-opacity:1"
       transform="matrix(1.3333333,0,0,-1.3333333,186.40933,84.253333)" />
    <path
       id="path5"
       d="m -96.1686,48.18947 h 15.69906 V 33.30746"
       style="fill:none;stroke:#000000;stroke-width:0.99628;stroke-linecap:round;stroke-linejoin:round;stroke-miterlimit:10;stroke-dasharray:none;stroke-opacity:1"
       transform="matrix(1.3333333,0,0,-1.3333333,186.40933,84.253333)" />
    <path
       id="path6"
       d="m -83.97733,33.30746 h 6.43125 m 2.33859,0 h 5.84656 m 2.33858,0 h 6.43125"
       style="fill:none;stroke:#000000;stroke-width:1.99255;stroke-linecap:round;stroke-linejoin:round;stroke-miterlimit:10;stroke-dasharray:none;stroke-opacity:1"
       transform="matrix(1.3333333,0,0,-1.3333333,186.40933,84.253333)" />
    <path
       id="path7"
       d="M -72.28421,33.30746 V 48.6876"
       style="fill:none;stroke:#000000;stroke-width:0.99628;stroke-linecap:round;stroke-linejoin:round;stroke-miterlimit:10;stroke-dasharray:none;stroke-opacity:1"
       transform="matrix(1.3333333,0,0,-1.3333333,186.40933,84.253333)" />
    <path
       id="path8"
       d="m -64.09889,33.30746 v 14.88201 h 15.69905"
       style="fill:none;stroke:#000000;stroke-width:0.99628;stroke-linecap:round;stroke-linejoin:round;stroke-miterlimit:10;stroke-dasharray:none;stroke-opacity:1"
       transform="matrix(1.3333333,0,0,-1.3333333,186.40933,84.253333)" />
    <path
       id="path9"
       d="m -80.96768,29.73595 h 17.36693"
       style="fill:none;stroke:#000000;stroke-width:1.99255;stroke-linecap:round;stroke-linejoin:round;stroke-miterlimit:10;stroke-dasharray:none;stroke-opacity:1"
       transform="matrix(1.3333333,0,0,-1.3333333,186.40933,84.253333)" />
    <path
       id="path10"
       d="m -72.28421,41.61856 h 2.88246 l -2.88246,-6.75239 -2.88246,6.75239 z"
       style="fill:#000000;fill-opacity:1;fill-rule:nonzero;stroke:none"
       transform="matrix(1.3333333,0,0,-1.3333333,186.40933,84.253333)" />
    <path
       id="path11"
       d="M -64.09889,29.73595 V 17.92732"
       style="fill:none;stroke:#000000;stroke-width:0.99628;stroke-linecap:round;stroke-linejoin:round;stroke-miterlimit:10;stroke-dasharray:none;stroke-opacity:1"
       transform="matrix(1.3333333,0,0,-1.3333333,186.40933,84.253333)" />
    <path
       id="path12"
       d="m -72.28421,48.18947 h 23.38623"
       style="fill:none;stroke:#000000;stroke-width:0.99628;stroke-linecap:round;stroke-linejoin:round;stroke-miterlimit:10;stroke-dasharray:none;stroke-opacity:1"
       transform="matrix(1.3333333,0,0,-1.3333333,186.40933,84.253333)" />
    <path
       id="path13"
       d="m 2.4610391,-3.5033672 c 0.023437,-0.070312 0.328125,-0.6679687 0.7617187,-1.0546875 0.3164063,-0.28125 0.7265625,-0.46875 1.1835938,-0.46875 0.4804687,0 0.6445312,0.3515625 0.6445312,0.8320313 0,0.070312 0,0.3046875 -0.140625,0.8671875 l -0.2929687,1.2304687 c -0.09375,0.3632813 -0.328125,1.25390626 -0.3515625,1.38281251 -0.046875,0.17578125 -0.1171875,0.4921875 -0.1171875,0.5390625 0,0.1640625 0.1289062,0.29296875 0.3046875,0.29296875 0.3632812,0 0.421875,-0.26953125 0.5273437,-0.703125 L 5.7071328,-3.4447734 c 0.023437,-0.09375 0.6445313,-1.5820313 1.9570313,-1.5820313 0.4804687,0 0.6445312,0.3515625 0.6445312,0.8320313 0,0.6679687 -0.46875,1.96875 -0.7265625,2.6835937 -0.1054687,0.2929688 -0.1757812,0.4453125 -0.1757812,0.66796876 0,0.52734375 0.375,0.9609375 0.9492187,0.9609375 1.1132813,0 1.5351563,-1.75781246 1.5351563,-1.82812496 0,-0.058594 -0.058594,-0.1054688 -0.1289063,-0.1054688 -0.1054687,0 -0.1171875,0.035156 -0.1757812,0.234375 -0.2695313,0.96093751 -0.7148438,1.46484376 -1.1953125,1.46484376 -0.1171875,0 -0.3046875,-0.0117187 -0.3046875,-0.3984375 0,-0.3046875 0.140625,-0.69140626 0.1875,-0.82031246 0.2109375,-0.5742188 0.75,-1.9921875 0.75,-2.6835938 0,-0.7148437 -0.421875,-1.2539062 -1.3242188,-1.2539062 -0.796875,0 -1.453125,0.4570312 -1.921875,1.1601562 -0.035156,-0.6445312 -0.4335937,-1.1601562 -1.3359375,-1.1601562 -1.0546875,0 -1.6171875,0.75 -1.8398437,1.0546875 -0.035156,-0.6796875 -0.5273438,-1.0546875 -1.0429688,-1.0546875 -0.3515625,0 -0.62109374,0.1640625 -0.85546874,0.6210937 -0.2109375,0.4335938 -0.375,1.1601563 -0.375,1.2070313 0,0.046875 0.046875,0.1054687 0.12890625,0.1054687 0.09375,0 0.10546875,-0.011719 0.17578125,-0.28125 0.17578125,-0.703125 0.41015624,-1.40625 0.89062504,-1.40625 0.2695312,0 0.3632812,0.1875 0.3632812,0.5390625 0,0.2695313 -0.1171875,0.7382813 -0.1992187,1.1015625 l -0.3398438,1.2890625 c -0.046875,0.234375 -0.1757812,0.7734375 -0.234375,0.984375 -0.082031,0.31640626 -0.21093749,0.87890626 -0.21093749,0.93750001 0,0.1640625 0.12890629,0.29296875 0.30468749,0.29296875 0.140625,0 0.3164063,-0.0703125 0.4101563,-0.24609375 0.023437,-0.0585938 0.1289062,-0.48046875 0.1875,-0.71484375 L 2.0626016,-1.9213359 Z m 0,0"
       style="fill:#000000;fill-opacity:1;fill-rule:nonzero;stroke:none"
       aria-label="m"
       transform="matrix(1.3333333,0,0,1.3333333,94.105333,71.636)" />
    <path
       id="path14"
       d="m -48.18947,-12.04733 -0.01579,26.93435 m 0,6.37984 0.01579,26.92261"
       style="fill:none;stroke:#000000;stroke-width:0.99628;stroke-linecap:round;stroke-linejoin:round;stroke-miterlimit:10;stroke-dasharray:none;stroke-opacity:1"
       transform="matrix(1.3333333,0,0,-1.3333333,186.40933,84.253333)" />
    <path
       id="path15"
       d="m -48.18944,21.25993 -3.18887,-6.37774 h 6.37775 l -3.18888,6.37774"
       style="fill:#000000;fill-opacity:1;fill-rule:nonzero;stroke:#000000;stroke-width:0.99628;stroke-linecap:round;stroke-linejoin:round;stroke-miterlimit:10;stroke-dasharray:none;stroke-opacity:1"
       transform="matrix(1.3333333,0,0,-1.3333333,186.40933,84.253333)" />
    <path
       id="path16"
       d="m -45.00056,21.25993 h -6.37775"
       style="fill:none;stroke:#000000;stroke-width:0.99628;stroke-linecap:round;stroke-linejoin:round;stroke-miterlimit:10;stroke-dasharray:none;stroke-opacity:1"
       transform="matrix(1.3333333,0,0,-1.3333333,186.40933,84.253333)" />
    <path
       id="path17"
       d="m -48.18947,48.18947 6.00986,0.01579 m 0,0 6.03751,-0.01579 13.10275,0.01579 m 34.02737,0 13.10669,-0.01579 v 0"
       style="fill:none;stroke:#000000;stroke-width:0.99628;stroke-linecap:round;stroke-linejoin:round;stroke-miterlimit:10;stroke-dasharray:none;stroke-opacity:1"
       transform="matrix(1.3333333,0,0,-1.3333333,186.40933,84.253333)" />
    <path
       id="path18"
       d="m -44.03986,48.20526 v -2.12599 l 4.51775,2.12599 -4.51775,2.12601 z"
       style="fill:#000000;fill-opacity:1;fill-rule:nonzero;stroke:#000000;stroke-width:0.99628;stroke-linecap:round;stroke-linejoin:round;stroke-miterlimit:10;stroke-dasharray:none;stroke-opacity:1"
       transform="matrix(1.3333333,0,0,-1.3333333,186.40933,84.253333)" />
    <path
       id="path19"
       d="m 3.3877187,-1.7107578 c 0,-0.058594 -0.046875,-0.1054688 -0.1289062,-0.1054688 -0.1054688,0 -0.1171875,0.035156 -0.1757813,0.234375 -0.3046875,1.08984379 -0.796875,1.46484379 -1.1953125,1.46484379 -0.140625,0 -0.3046875,-0.0351562 -0.3046875,-0.3984375 0,-0.31640625 0.140625,-0.67968749 0.2695313,-1.04296879 l 0.84375,-2.2148437 C 2.7314687,-3.8670078 2.8135,-4.0896641 2.8135,-4.3123203 c 0,-0.5039063 -0.3632813,-0.9609375 -0.9492188,-0.9609375 -1.10156245,0 -1.5351562,1.734375 -1.5351562,1.828125 0,0.046875 0.046875,0.1054687 0.12890625,0.1054687 0.10546875,0 0.1171875,-0.046875 0.1640625,-0.2109375 C 0.9150625,-4.5584141 1.360375,-5.0271641 1.829125,-5.0271641 c 0.1054687,0 0.3164062,0.011719 0.3164062,0.3867188 0,0.3164062 -0.1640625,0.703125 -0.2578125,0.9726562 l -0.8320312,2.2265625 c -0.0703125,0.1875 -0.140625,0.375 -0.140625,0.59765629 0,0.52734375 0.3632812,0.9609375 0.9375,0.9609375 1.1015625,0 1.5351562,-1.74609379 1.5351562,-1.82812499 z m -0.09375,-5.7421875 c 0,-0.1875 -0.1523437,-0.3984375 -0.4101562,-0.3984375 -0.28125,0 -0.5859375,0.2578125 -0.5859375,0.5742187 0,0.2929688 0.2460937,0.3867188 0.3984375,0.3867188 0.3164062,0 0.5976562,-0.3046875 0.5976562,-0.5625 z m 0,0"
       style="fill:#000000;fill-opacity:1;fill-rule:nonzero;stroke:none"
       aria-label="i"
       transform="matrix(1.3333333,0,0,1.3333333,127.49867,14.878667)" />
    <path
       id="path20"
       d="m -23.52995,47.79094 c 0,3.52237 1.95942,6.37776 4.37655,6.37776 2.41713,0 4.37658,-2.85539 4.37658,-6.37776 0,3.52237 1.95942,6.37776 4.37655,6.37776 2.41713,0 4.37656,-2.85539 4.37656,-6.37776 0,3.52237 1.95942,6.37776 4.37655,6.37776 2.41712,0 4.37655,-2.85539 4.37655,-6.37776 0,3.52237 1.95942,6.37776 4.37655,6.37776 2.41713,0 4.37656,-2.85539 4.37656,-6.37776"
       style="fill:none;stroke:#000000;stroke-width:0.99628;stroke-linecap:butt;stroke-linejoin:bevel;stroke-miterlimit:10;stroke-dasharray:none;stroke-opacity:1"
       transform="matrix(1.3333333,0,0,-1.3333333,186.40933,84.253333)" />
    <path
       id="path21"
       d="m 3.0344062,-7.9920078 c 0.011719,-0.046875 0.035156,-0.1289063 0.035156,-0.1875 0,-0.1171875 -0.1171875,-0.1171875 -0.140625,-0.1171875 -0.011719,0 -0.4453125,0.035156 -0.65625,0.058594 -0.2109375,0.011719 -0.3867188,0.035156 -0.5976563,0.046875 -0.2929687,0.023437 -0.375,0.035156 -0.375,0.2578125 0,0.1171875 0.1171875,0.1171875 0.2460938,0.1171875 0.609375,0 0.609375,0.1054688 0.609375,0.2226563 0,0.046875 0,0.070312 -0.058594,0.2929687 L 0.608625,-1.3709141 c -0.0351563,0.1289063 -0.0585938,0.2226563 -0.0585938,0.41015629 0,0.59765625 0.4453125,1.078125 1.0546875,1.078125 0.3867187,0 0.65625,-0.2578125 0.84375,-0.6328125 0.1992188,-0.3984375 0.375,-1.14843749 0.375,-1.19531249 0,-0.058594 -0.046875,-0.1054688 -0.1171875,-0.1054688 -0.1171875,0 -0.1289062,0.058594 -0.1757812,0.234375 -0.2109375,0.83203129 -0.421875,1.46484379 -0.9023438,1.46484379 -0.3632813,0 -0.3632813,-0.38671875 -0.3632813,-0.55078125 0,-0.046875 0,-0.3046875 0.082031,-0.63281254 z m 0,0"
       style="fill:#000000;fill-opacity:1;fill-rule:nonzero;stroke:none"
       aria-label="l"
       transform="matrix(1.3333333,0,0,1.3333333,175.876,37.378667)" />
    <path
       id="path22"
       d="m 24.09471,48.18947 0.0079,-25.85915 m 0,-8.50671 -0.0079,-25.87094"
       style="fill:none;stroke:#000000;stroke-width:0.99628;stroke-linecap:round;stroke-linejoin:round;stroke-miterlimit:10;stroke-dasharray:none;stroke-opacity:1"
       transform="matrix(1.3333333,0,0,-1.3333333,186.40933,84.253333)" />
    <path
       id="path23"
       d="M 36.85088,22.323 H 11.3385 M 36.85088,13.8191 H 11.3385"
       style="fill:none;stroke:#000000;stroke-width:0.99628;stroke-linecap:round;stroke-linejoin:round;stroke-miterlimit:10;stroke-dasharray:none;stroke-opacity:1"
       transform="matrix(1.3333333,0,0,-1.3333333,186.40933,84.253333)" />
    <path
       id="path24"
       d="m 24.09471,48.18947 h 48.1895 l 0.02377,-13.09879 m 0,-34.02745 -0.02377,-13.11056 h -180.71054"
       style="fill:none;stroke:#000000;stroke-width:0.99628;stroke-linecap:round;stroke-linejoin:round;stroke-miterlimit:10;stroke-dasharray:none;stroke-opacity:1"
       transform="matrix(1.3333333,0,0,-1.3333333,186.40933,84.253333)" />
    <path
       id="path25"
       d="m 72.28421,35.57733 6.3781,-3.33283 -12.7562,-5.66935 12.7562,-5.66937 -12.7562,-5.66936 12.7562,-5.66937 -12.7562,-5.66936 6.3781,-3.33282"
       style="fill:none;stroke:#000000;stroke-width:0.99628;stroke-linecap:round;stroke-linejoin:bevel;stroke-miterlimit:10;stroke-dasharray:none;stroke-opacity:1"
       transform="matrix(1.3333333,0,0,-1.3333333,186.40933,84.253333)" />
    <path
       id="path26"
       d="m 4.6758672,-4.5013828 c -0.234375,0 -0.3398438,0 -0.5039063,0.1523437 -0.070312,0.058594 -0.1992187,0.234375 -0.1992187,0.421875 0,0.2460938 0.1757812,0.3867188 0.3984375,0.3867188 0.2929687,0 0.609375,-0.234375 0.609375,-0.7148438 0,-0.5742187 -0.5507813,-1.0195312 -1.3710938,-1.0195312 -1.5703125,0 -3.12890621,1.7109375 -3.12890621,3.4101562 0,1.04296879 0.64453121,1.98046879 1.86328121,1.98046879 1.6289063,0 2.6484375,-1.26562499 2.6484375,-1.41796879 0,-0.070312 -0.070312,-0.1289062 -0.1171875,-0.1289062 -0.035156,0 -0.046875,0.011719 -0.1523437,0.1171875 -0.7617188,1.00781249 -1.8984375,1.19531249 -2.3554688,1.19531249 -0.8203125,0 -1.0898437,-0.71484375 -1.0898437,-1.31249999 0,-0.421875 0.1992187,-1.5820313 0.6328125,-2.390625 0.3164062,-0.5625 0.9609375,-1.2070313 1.7109375,-1.2070313 0.1523437,0 0.8085937,0.023437 1.0546875,0.5273438 z m 0,0"
       style="fill:#000000;fill-opacity:1;fill-rule:nonzero;stroke:none"
       aria-label="c"
       transform="matrix(1.3333333,0,0,1.3333333,183.05067,63.912)" />
    <g
       id="g26"
       aria-label="1/r"
       transform="matrix(1.3333333,0,0,1.3333333,296.94933,64.465333)">
      <path
         id="path27"
         d="m 3.4452266,-7.6644297 c 0,-0.2695312 0,-0.28125 -0.2460938,-0.28125 -0.28125,0.3164063 -0.8789062,0.7617188 -2.109375,0.7617188 v 0.3515625 c 0.2695313,0 0.8671875,0 1.5234375,-0.3164063 v 6.22265626 c 0,0.43359375 -0.035156,0.57421875 -1.078125,0.57421875 h -0.375 v 0.3515625025 c 0.3164063,-0.0234375025 1.4765625,-0.0234375025 1.875,-0.0234375025 0.3984375,0 1.546875,0 1.8632813,0.0234375025 V -0.35192969 H 4.5350703 c -1.0546875,0 -1.0898437,-0.140625 -1.0898437,-0.57421875 z m 0,0"
         style="fill:#000000;fill-opacity:1;fill-rule:nonzero;stroke:none" />
      <path
         id="path28"
         d="m 10.986242,-8.5198984 c 0,-0.011719 0.07031,-0.1992188 0.07031,-0.2226563 0,-0.140625 -0.117188,-0.2226562 -0.222657,-0.2226562 -0.05859,0 -0.164062,0 -0.257812,0.2578125 l -4.0078126,11.25 c 0,0.011719 -0.070312,0.1992187 -0.070312,0.2226562 0,0.140625 0.1171875,0.2226563 0.2109375,0.2226563 0.082031,0 0.1875,-0.011719 0.2695313,-0.2578125 z m 5.373047,3.6328125 c -0.375,0.070312 -0.5625,0.328125 -0.5625,0.5976562 0,0.28125 0.222656,0.375 0.398438,0.375 0.328125,0 0.609375,-0.28125 0.609375,-0.6445312 0,-0.375 -0.375,-0.7148438 -0.972657,-0.7148438 -0.480468,0 -1.03125,0.2226563 -1.535156,0.9492188 -0.08203,-0.6328125 -0.5625,-0.9492188 -1.03125,-0.9492188 -0.46875,0 -0.714844,0.3632813 -0.855469,0.6210938 -0.199218,0.4335937 -0.375,1.1484375 -0.375,1.2070312 0,0.046875 0.04687,0.1054688 0.128907,0.1054688 0.09375,0 0.105468,-0.011719 0.175781,-0.28125 0.175781,-0.7148438 0.410156,-1.40625 0.890625,-1.40625 0.28125,0 0.363281,0.1992187 0.363281,0.5390625 0,0.2695312 -0.117187,0.7382812 -0.199219,1.1015625 l -0.339843,1.2890625 c -0.04687,0.234375 -0.175782,0.7734375 -0.234375,0.984375 -0.08203,0.31640621 -0.210938,0.87890621 -0.210938,0.93749996 0,0.1640625 0.128906,0.29296875 0.304688,0.29296875 0.128906,0 0.363281,-0.08203125 0.433593,-0.31640625 0.03516,-0.10546875 0.480469,-1.91015626 0.550782,-2.17968746 0.05859,-0.2578125 0.128906,-0.515625 0.1875,-0.7734375 0.04687,-0.1757813 0.09375,-0.3632813 0.128906,-0.515625 0.03516,-0.1054688 0.363281,-0.6914063 0.65625,-0.9609375 0.152344,-0.1289063 0.457031,-0.3984375 0.949219,-0.3984375 0.1875,0 0.386718,0.035156 0.539062,0.140625 z m 0,0"
         style="fill:#000000;fill-opacity:1;fill-rule:nonzero;stroke:none" />
    </g>
    <path
       id="path29"
       d="m 7.8737891,-2.7530234 c 0.2109375,0 0.421875,0 0.421875,-0.234375 0,-0.234375 -0.2109375,-0.234375 -0.421875,-0.234375 h -6.46875 c -0.1992188,0 -0.41015629,0 -0.41015629,0.234375 0,0.234375 0.21093749,0.234375 0.41015629,0.234375 z m 0,0"
       style="fill:#000000;fill-opacity:1;fill-rule:nonzero;stroke:none"
       aria-label="−"
       transform="matrix(1.3333333,0,0,1.3333333,244.51333,79.338667)" />
    <path
       id="path30"
       d="m 4.7709297,-2.7670781 h 3.3046875 c 0.1640625,0 0.375,0 0.375,-0.2109375 0,-0.2226563 -0.1992188,-0.2226563 -0.375,-0.2226563 H 4.7709297 v -3.3046875 c 0,-0.1640625 0,-0.3867187 -0.2109375,-0.3867187 -0.234375,0 -0.234375,0.2109375 -0.234375,0.3867187 v 3.3046875 H 1.0326484 c -0.17578121,0 -0.38671871,0 -0.38671871,0.2109375 0,0.2226563 0.19921875,0.2226563 0.38671871,0.2226563 h 3.2929688 v 3.30468748 c 0,0.1640625 0,0.38671875 0.2226562,0.38671875 0.2226563,0 0.2226563,-0.2109375 0.2226563,-0.38671875 z m 0,0"
       style="fill:#000000;fill-opacity:1;fill-rule:nonzero;stroke:none"
       aria-label="+"
       transform="matrix(1.3333333,0,0,1.3333333,244.64267,48.916)" />
    <path
       id="path31"
       d="m 5.4601953,-4.4641797 c 0,-0.7617187 -0.375,-0.8085937 -0.4804687,-0.8085937 -0.28125,0 -0.5507813,0.2929687 -0.5507813,0.5273437 0,0.140625 0.09375,0.2226563 0.140625,0.28125 0.1171875,0.1054688 0.421875,0.421875 0.421875,1.0429688 0,0.5039062 -0.7148437,3.30468746 -2.1445312,3.30468746 -0.7265625,0 -0.8789063,-0.609375 -0.8789063,-1.05468746 0,-0.5976563 0.28125,-1.4296875 0.5976563,-2.296875 0.1992187,-0.4921875 0.2460937,-0.609375 0.2460937,-0.84375 0,-0.5039063 -0.3632812,-0.9609375 -0.9492187,-0.9609375 -1.10156254,0 -1.53515629,1.734375 -1.53515629,1.828125 0,0.046875 0.046875,0.1054687 0.12890625,0.1054687 0.10546875,0 0.1171875,-0.046875 0.1640625,-0.2109375 0.29296875,-1.03125 0.75000004,-1.4765625 1.20703124,-1.4765625 0.1054688,0 0.3164063,0 0.3164063,0.3867188 0,0.3164062 -0.140625,0.65625 -0.3164063,1.1132812 -0.5742187,1.5351563 -0.5742187,1.8984375 -0.5742187,2.1914063 0,0.2578125 0.035156,0.74999996 0.4101562,1.08984371 0.4335938,0.36328125 1.03125,0.36328125 1.1367188,0.36328125 1.9804687,0 2.6601562,-3.90234376 2.6601562,-4.58203126 z m 0,0"
       style="fill:#000000;fill-opacity:1;fill-rule:nonzero;stroke:none"
       aria-label="v"
       transform="matrix(1.3333333,0,0,1.3333333,246.65333,63.573333)" />
    <path
       id="path32"
       d="m 7.8760391,-2.7535234 c 0.2109375,0 0.421875,0 0.421875,-0.234375 0,-0.234375 -0.2109375,-0.234375 -0.421875,-0.234375 h -6.46875 c -0.1992188,0 -0.41015629,0 -0.41015629,0.234375 0,0.234375 0.21093749,0.234375 0.41015629,0.234375 z m 0,0"
       style="fill:#000000;fill-opacity:1;fill-rule:nonzero;stroke:none"
       aria-label="−"
       transform="matrix(1.3333333,0,0,1.3333333,3.3853333,90.589333)" />
    <path
       id="path33"
       d="m 4.77025,-2.7655781 h 3.3046875 c 0.1640625,0 0.375,0 0.375,-0.2109375 0,-0.2226563 -0.1992188,-0.2226563 -0.375,-0.2226563 H 4.77025 v -3.3046875 c 0,-0.1640625 0,-0.3867187 -0.2109375,-0.3867187 -0.234375,0 -0.234375,0.2109375 -0.234375,0.3867187 v 3.3046875 H 1.0319687 c -0.1757812,0 -0.3867187,0 -0.3867187,0.2109375 0,0.2226563 0.19921875,0.2226563 0.3867187,0.2226563 h 3.2929688 v 3.30468747 c 0,0.1640625 0,0.38671875 0.2226562,0.38671875 0.2226563,0 0.2226563,-0.2109375 0.2226563,-0.38671875 z m 0,0"
       style="fill:#000000;fill-opacity:1;fill-rule:nonzero;stroke:none"
       aria-label="+"
       transform="matrix(1.3333333,0,0,1.3333333,3.5146667,37.664)" />
    <g
       id="g33"
       aria-label="v&#10;0"
       transform="matrix(1.3333333,0,0,1.3333333,2.656,62.377333)">
      <path
         id="path34"
         d="m 5.461125,-4.4636641 c 0,-0.7617187 -0.375,-0.8085937 -0.4804688,-0.8085937 -0.28125,0 -0.5507812,0.2929687 -0.5507812,0.5273437 0,0.140625 0.09375,0.2226563 0.140625,0.28125 0.1171875,0.1054688 0.421875,0.421875 0.421875,1.0429688 0,0.5039062 -0.7148438,3.30468749 -2.1445313,3.30468749 -0.7265625,0 -0.8789062,-0.609375 -0.8789062,-1.05468749 0,-0.5976563 0.28125,-1.4296875 0.5976562,-2.296875 0.1992188,-0.4921875 0.2460938,-0.609375 0.2460938,-0.84375 0,-0.5039063 -0.3632813,-0.9609375 -0.9492188,-0.9609375 -1.10156245,0 -1.5351562,1.734375 -1.5351562,1.828125 0,0.046875 0.046875,0.1054687 0.12890625,0.1054687 0.10546875,0 0.1171875,-0.046875 0.1640625,-0.2109375 0.29296875,-1.03125 0.74999995,-1.4765625 1.20703125,-1.4765625 0.1054687,0 0.3164062,0 0.3164062,0.3867188 0,0.3164062 -0.140625,0.65625 -0.3164062,1.1132812 -0.5742188,1.5351563 -0.5742188,1.8984375 -0.5742188,2.1914063 0,0.2578125 0.035156,0.74999999 0.4101563,1.08984374 0.4335937,0.36328125 1.03125,0.36328125 1.1367187,0.36328125 1.9804688,0 2.6601563,-3.90234379 2.6601563,-4.58203129 z m 0,0"
         style="fill:#000000;fill-opacity:1;fill-rule:nonzero;stroke:none" />
      <path
         id="path35"
         d="m 9.5626875,-0.74882031 c 0,-0.85546879 -0.09375,-1.37109379 -0.3515625,-1.87499999 -0.3515625,-0.703125 -0.9960938,-0.8789063 -1.4414063,-0.8789063 -0.9960937,0 -1.3710937,0.75 -1.4765625,0.9726563 -0.2929687,0.5742187 -0.3046875,1.3710937 -0.3046875,1.78124999 0,0.52734375 0.023437,1.3359375 0.4101563,1.96875001 0.3632812,0.5859375 0.9492187,0.7382812 1.3710937,0.7382812 0.3867188,0 1.0664063,-0.1171875 1.4648438,-0.9023437 0.2929687,-0.57421876 0.328125,-1.28906251 0.328125,-1.80468751 z M 7.7697187,1.7355547 c -0.2695312,0 -0.8203125,-0.1289063 -0.984375,-0.96093751 -0.09375,-0.45703125 -0.09375,-1.20703125 -0.09375,-1.6171875 0,-0.55078129 0,-1.11328129 0.09375,-1.54687499 0.1640625,-0.8085938 0.7851563,-0.890625 0.984375,-0.890625 0.2695313,0 0.8203125,0.1289062 0.984375,0.8554687 0.09375,0.4453125 0.09375,1.0429688 0.09375,1.58203129 0,0.46875 0,1.18359375 -0.09375,1.62890625 C 8.5900312,1.6300859 8.03925,1.7355547 7.7697187,1.7355547 Z m 0,0"
         style="fill:#000000;fill-opacity:1;fill-rule:nonzero;stroke:none" />
    </g>
  </g>
</svg>
